<?xml version="1.0" encoding="iso-8859-1"?>
<!-- Uploaded to: SVG Repo, www.svgrepo.com, Generator: SVG Repo Mixer Tools -->
<svg height="800px" width="800px" version="1.1" data-id="Layer_1" xmlns="http://www.w3.org/2000/svg" xmlns:xlink="http://www.w3.org/1999/xlink" 
	 viewBox="0 0 512 512" xml:space="preserve">
<path style="fill:#6DABE4;" d="M464.352,112.415H48.888c-14.869,0-26.921,12.053-26.921,26.921v211.303h469.306V139.336
	C491.273,124.469,479.221,112.415,464.352,112.415z"/>
<g>
	<path style="fill:#FFB547;" d="M457.318,296.922h33.956v35.603h-33.956c-2.846,0-5.153-2.307-5.153-5.153v-25.297
		C452.165,299.23,454.472,296.922,457.318,296.922z"/>
	<path style="fill:#FFB547;" d="M55.923,296.922H21.967v35.603h33.956c2.846,0,5.153-2.307,5.153-5.153v-25.297
		C61.076,299.23,58.769,296.922,55.923,296.922z"/>
</g>
<path style="fill:#99DAEA;" d="M491.273,266.048H462.87c-5.913,0-10.705-4.793-10.705-10.705v-72.102h39.108V266.048z"/>
<path style="fill:#E8E8E8;" d="M462.87,139.336h28.403v43.904h-39.108v-33.199C452.165,144.129,456.957,139.336,462.87,139.336z"/>
<g>
	<path style="fill:#99DAEA;" d="M326.55,214.038h75.932c4.992,0,9.038-4.047,9.038-9.038V161.29h-94.008V205
		C317.513,209.991,321.559,214.038,326.55,214.038z"/>
	<path style="fill:#99DAEA;" d="M201.035,214.038h75.932c4.992,0,9.038-4.047,9.038-9.038V161.29h-94.008V205
		C191.996,209.991,196.043,214.038,201.035,214.038z"/>
	<path style="fill:#99DAEA;" d="M75.519,214.038h75.931c4.992,0,9.038-4.047,9.038-9.038V161.29H66.481V205
		C66.481,209.991,70.528,214.038,75.519,214.038z"/>
</g>
<path style="opacity:0.2;enable-background:new    ;" d="M294.633,301.694h-86.347c-4.415,0-7.992-3.577-7.992-7.992
	c0-4.415,3.577-7.992,7.992-7.992h86.347c4.415,0,7.992,3.577,7.992,7.992C302.625,298.115,299.047,301.694,294.633,301.694z"/>
<path style="opacity:0.2;enable-background:new    ;" d="M275.127,325.997h-47.337c-4.415,0-7.992-3.577-7.992-7.992
	c0-4.415,3.577-7.992,7.992-7.992h47.337c4.415,0,7.992,3.577,7.992,7.992S279.542,325.997,275.127,325.997z"/>
<path style="opacity:0.15;enable-background:new    ;" d="M40.474,334.215V122.912c0-3.412,0.641-6.671,1.799-9.675
	c-11.669,2.948-20.305,13.514-20.305,26.099v211.303h469.306v-16.424H40.474z"/>
<g>
	<circle style="fill:#333E48;" cx="140.385" cy="350.637" r="48.944"/>
	<circle style="fill:#333E48;" cx="140.385" cy="350.637" r="48.944"/>
</g>
<circle style="fill:#D1D3D3;" cx="140.385" cy="350.637" r="21.181"/>
<path style="opacity:0.15;enable-background:new    ;" d="M147.848,390.172c-27.031,0-48.944-21.913-48.944-48.944
	c0-9.31,2.6-18.012,7.114-25.422c-8.993,8.875-14.572,21.201-14.572,34.835c0,27.031,21.913,48.944,48.944,48.944
	c17.721,0,33.242-9.418,41.831-23.522C173.381,384.783,161.246,390.172,147.848,390.172z"/>
<g>
	<circle style="fill:#333E48;" cx="362.571" cy="350.637" r="48.944"/>
	<circle style="fill:#333E48;" cx="362.571" cy="350.637" r="48.944"/>
</g>
<circle style="fill:#D1D3D3;" cx="362.571" cy="350.637" r="21.181"/>
<path style="opacity:0.15;enable-background:new    ;" d="M370.035,390.172c-27.031,0-48.944-21.913-48.944-48.944
	c0-9.311,2.6-18.013,7.114-25.422c-8.993,8.875-14.572,21.201-14.572,34.835c0,27.031,21.913,48.944,48.944,48.944
	c17.721,0,33.242-9.418,41.831-23.522C395.57,384.783,383.433,390.172,370.035,390.172z"/>
<path style="fill:#C3C6C8;" d="M496.61,368.754h-50.195c-4.086,0-7.398-3.312-7.398-7.398v-21.432c0-4.085,3.312-7.398,7.398-7.398
	h50.195c4.086,0,7.398,3.313,7.398,7.398v21.432C504.008,365.441,500.696,368.754,496.61,368.754z"/>
<path style="opacity:0.15;enable-background:new    ;" d="M455.65,360.585c-4.086,0-7.398-3.312-7.398-7.398v-20.661h-1.837
	c-4.086,0-7.398,3.312-7.398,7.398v21.432c0,4.086,3.312,7.398,7.398,7.398h50.195c4.086,0,7.398-3.313,7.398-7.398v-0.771H455.65z"
	/>
<path style="fill:#C3C6C8;" d="M59.083,368.754H15.39c-4.086,0-7.398-3.312-7.398-7.398v-21.432c0-4.085,3.313-7.398,7.398-7.398
	h43.693c4.086,0,7.398,3.313,7.398,7.398v21.432C66.481,365.441,63.168,368.754,59.083,368.754z"/>
<path style="opacity:0.15;enable-background:new    ;" d="M23.559,360.467c-4.086,0-7.398-3.313-7.398-7.398v-20.543H15.39
	c-4.085,0-7.398,3.312-7.398,7.398v21.432c0,4.086,3.313,7.398,7.398,7.398h43.693c4.086,0,7.398-3.313,7.398-7.398v-0.89
	L23.559,360.467L23.559,360.467z"/>
<path style="fill:#FFB547;" d="M399.166,241.337H21.967v24.71h377.199c6.824,0,12.355-5.531,12.355-12.355l0,0
	C411.521,246.869,405.99,241.337,399.166,241.337z"/>
<path style="fill:#1E252B;" d="M499.266,324.78V139.337c0-19.251-15.661-34.913-34.913-34.913H48.888
	c-19.251,0-34.912,15.661-34.912,34.913v185.268C6.151,325.323,0,331.915,0,339.924v21.432c0,8.486,6.904,15.388,15.39,15.388
	h43.693c8.486,0,15.389-6.904,15.389-15.388v-2.726h9.554c3.899,27.623,27.682,48.946,56.364,48.946s52.465-21.321,56.364-48.946
	h109.461c3.899,27.623,27.682,48.946,56.364,48.946c28.682,0,52.465-21.321,56.364-48.946h12.085v2.726
	c0,8.486,6.904,15.388,15.39,15.388h50.194c8.486,0,15.39-6.904,15.39-15.388v-21.432C512,332.345,506.488,326.043,499.266,324.78z
	 M460.156,175.249v-25.206c0-1.496,1.218-2.714,2.714-2.714h20.411v27.92H460.156z M483.283,191.232v66.824H462.87
	c-1.496,0-2.714-1.218-2.714-2.714v-64.11H483.283z M29.959,139.337c0-10.438,8.491-18.93,18.929-18.93h415.464
	c7.58,0,14.115,4.489,17.136,10.939H462.87c-10.31,0-18.697,8.387-18.697,18.697v3.255H29.959V139.337z M403.529,169.28v35.719
	c0,0.578-0.47,1.046-1.046,1.046H326.55c-0.576,0-1.045-0.469-1.045-1.046V169.28H403.529z M278.014,169.28v35.719
	c0,0.578-0.469,1.046-1.046,1.046h-75.932c-0.578,0-1.046-0.469-1.046-1.046V169.28H278.014z M152.498,169.28v35.719
	c0,0.578-0.469,1.046-1.046,1.046H75.519c-0.578,0-1.046-0.469-1.046-1.046V169.28H152.498z M29.959,304.914h23.125v19.62H29.959
	V304.914z M58.49,360.762H15.983v-20.245H58.49V360.762z M140.389,391.593c-22.581,0-40.953-18.371-40.953-40.954
	c0-22.581,18.371-40.953,40.953-40.953s40.953,18.371,40.953,40.953C181.342,373.222,162.97,391.593,140.389,391.593z
	 M362.576,391.593c-22.581,0-40.953-18.371-40.953-40.954c0-22.581,18.371-40.953,40.953-40.953
	c22.581,0,40.953,18.371,40.953,40.953C403.529,373.222,385.158,391.593,362.576,391.593z M444.173,302.076v22.64
	c-7.425,1.091-13.149,7.485-13.149,15.207v2.725h-12.085c-3.899-27.623-27.682-48.944-56.364-48.944
	c-28.682,0-52.465,21.32-56.364,48.944H196.753c-3.899-27.623-27.682-48.944-56.364-48.944s-52.465,21.32-56.364,48.944h-9.554
	v-2.725c0-4.696-2.12-8.902-5.447-11.726c0.017-0.274,0.042-0.547,0.042-0.825v-25.296c0-7.249-5.897-13.146-13.144-13.146H29.959
	V169.28h28.53v35.719c0,9.391,7.64,17.029,17.029,17.029h75.932c9.391,0,17.029-7.64,17.029-17.029V169.28h15.524v35.719
	c0,9.391,7.64,17.029,17.029,17.029h75.932c9.391,0,17.029-7.64,17.029-17.029V169.28h15.524v35.719
	c0,9.391,7.639,17.029,17.028,17.029h75.932c9.391,0,17.029-7.64,17.029-17.029V169.28h24.661v86.063
	c0,10.31,8.387,18.697,18.697,18.697h20.411v14.892h-25.964C450.071,288.93,444.173,294.827,444.173,302.076z M483.283,304.914
	v19.62h-23.125v-19.62H483.283z M496.017,360.762h-49.008v-20.245h49.008V360.762z"/>
</svg>