<?xml version="1.0" encoding="utf-8"?>

<!DOCTYPE svg PUBLIC "-//W3C//DTD SVG 1.1//EN" "http://www.w3.org/Graphics/SVG/1.1/DTD/svg11.dtd">
<!-- Uploaded to: SVG Repo, www.svgrepo.com, Generator: SVG Repo Mixer Tools -->
<svg height="800px" width="800px" version="1.1" id="_x32_" xmlns="http://www.w3.org/2000/svg" xmlns:xlink="http://www.w3.org/1999/xlink" 
	 viewBox="0 0 512 512"  xml:space="preserve">
<style type="text/css">
	.st0{fill:#000000;}
</style>
<g>
	<path class="st0" d="M395.914,280.909v110.243L293.305,290.163l42.018-35.667c-9.729-7.633-18.24-16.686-25.196-26.818
		l-87.074,73.902c-1.69,1.418-4.19,2.228-6.891,2.228c-2.635,0-5.135-0.81-6.822-2.228L49.785,166.209h237.846
		c-0.338-3.783-0.541-7.635-0.541-11.553c0-8.308,0.812-16.414,2.297-24.318H0v324.244h432.324v-173.47
		c-5.742,0.81-11.617,1.216-17.563,1.216C408.344,282.328,402.062,281.855,395.914,280.909z M36.41,203.091l43.908,37.288
		l58.701,49.784L36.41,391.152V203.091z M62.891,418.712L168.27,314.955l13.779,11.686c9.188,7.836,21.279,12.092,34.113,12.092
		c12.834,0,24.994-4.256,34.113-12.024l13.782-11.754l105.377,103.757H62.891z"/>
	<path class="st0" d="M414.744,57.418c-53.713,0-97.256,43.543-97.256,97.256s43.543,97.256,97.256,97.256
		c53.717,0,97.256-43.543,97.256-97.256S468.461,57.418,414.744,57.418z M439.633,211.504h-26.068V125.92l-29.078,25.26v-28.074
		l29.078-25.261h26.068V211.504z"/>
</g>
</svg>