<svg width="12" height="12" viewBox="0 0 12 12" fill="none" xmlns="http://www.w3.org/2000/svg">
<path d="M11.8202 5.59213L5.66067 0.0657302C5.61339 0.0235954 5.55306 0 5.48948 0H4.0466C3.92595 0 3.87051 0.155056 3.96182 0.235955L9.6714 5.35955H0.13043C0.0586936 5.35955 0 5.42022 0 5.49438V6.50562C0 6.57978 0.0586936 6.64045 0.13043 6.64045H9.66976L3.96019 11.764C3.86888 11.8466 3.92432 12 4.04497 12H5.53676C5.56774 12 5.59871 11.9882 5.62154 11.9663L11.8202 6.40787C11.8767 6.35713 11.9219 6.29446 11.9529 6.2241C11.984 6.15374 12 6.07732 12 6C12 5.92268 11.984 5.84626 11.9529 5.7759C11.9219 5.70554 11.8767 5.64287 11.8202 5.59213Z" fill="#0C0C0D"/>
</svg>